<mxfile
  host="Electron" 
  agent="Mozilla/5.0 (Macintosh; Intel Mac OS X 10_15_7) AppleWebKit/537.36 (KHTML, like Gecko) draw.io/25.0.2 Chrome/128.0.6613.186 Electron/32.2.5 Safari/537.36" 
  version="25.0.2"
  >
  <diagram
    name="-"
    >
    <mxGraphModel
      grid="1" 
      gridSize="10" 
      guides="1" 
      tooltips="1" 
      connect="1" 
      arrows="1" 
      fold="1" 
      page="1" 
      pageScale="1" 
      pageWidth="1" 
      pageHeight="1" 
      math="0" 
      shadow="0"
      >
      <root>
        <mxCell
          id="page"
          />
        <mxCell
          id="root" 
          parent="page"
          />
        <mxCell
          style="verticalAlign=top;aspect=fixed;align=center;spacingLeft=5;spacingRight=5;spacingBottom=5;strokeColor=none;" 
          id="shape_" 
          parent="root" 
          value=" " 
          vertex="1"
          >
          <mxGeometry
            as="geometry" 
            width="102" 
            height="96" 
            x="0" 
            y="0"
            />
          </mxCell>
        <mxCell
          style="rounded=1;whiteSpace=wrap;verticalAlign=top;align=center;sketch=0;html=1;labelPosition=center;verticalLabelPosition=bottom;spacingTop=-6;fontSize=11;fontStyle=1;fontColor=#999999;shape=image;aspect=fixed;imageAspect=0;image=data:image/svg+xml,PHN2ZyB4bWxucz0iaHR0cDovL3d3dy53My5vcmcvMjAwMC9zdmciIGlkPSJzdmc1MzkzNyIgdmVyc2lvbj0iMS4xIiB2aWV3Qm94PSIwIDAgMTUxLjQ4MDY3IDEzMS4zMDQ2NCIgaGVpZ2h0PSIxMzEuMzA0NjRtbSIgd2lkdGg9IjE1MS40ODA2N21tIj4mI3hhOyAgPHBhdGggZD0iTSA3Ni4wOTc2NzksMCA2LjE4NjcwMjMsMTIwLjYyOTMzIDYuMTgxNTM1LDEyMC42MzE5OCAwLDEzMS4zMDQ2NCBsIDExLjY4ODY5MiwtMC4wMzEgMC4wMDgzLC0wLjAwNCAxMzkuNzgzNzA4LC0wLjQyNjMzIC02LjEwMTk1LC0xMC41OTM2NyAtMC4wMDIsLTAuMDAxIHogTSA3Ni4wNjY2NzMsMjMuOTg0NTgyIDExMi44NTcxOSw4Ny44NDMyMTYgNzYuMDg5OTI3LDUwLjc0OTg3NCAzOC44NjI3NDMsODguMTc3NTYyIFogbSAwLjAwNzgsNDMuNzk2ODA5IEwgMTE0LjIwNDkxLDEwNi4yNDg4MSA3Ni4wNzgwNDIsODkuMTI0NzkyIDM3LjU4ODkyLDEwNi40NzQ2NCBaIG0gMC4wMTM0NCwzNC40OTk2OTkgMzcuMTc2NTQ3LDE2LjY3OTA5IC03NC43MzAzMjcsMC4yMjc4OSB6IiBzdHlsZT0iY29sb3I6IzAwMDAwMDtmaWxsOiMzYzg0Zjg7ZmlsbC1vcGFjaXR5OjE7c3Ryb2tlLXdpZHRoOjE7LWlua3NjYXBlLXN0cm9rZTpub25lIiBpZD0icGF0aDU0MDc4Ii8+JiN4YTs8L3N2Zz4;strokeColor=none;" 
          id="anthos_" 
          parent="shape_" 
          value=" " 
          vertex="1"
          >
          <mxGeometry
            width="42" 
            height="36" 
            as="geometry" 
            x="30" 
            y="30"
            />
          </mxCell>
        </root>
      </mxGraphModel>
    </diagram>
  </mxfile>